<svg xmlns="http://www.w3.org/2000/svg" viewBox="0 0 800 500" fill="none">
  <rect width="800" height="500" fill="#1A1206"/>
  <rect width="800" height="500" fill="url(#g)" opacity="0.6"/>
  <defs>
    <linearGradient id="g" x1="0" y1="0" x2="800" y2="500" gradientUnits="userSpaceOnUse">
      <stop stop-color="#3a2a05"/><stop offset="1" stop-color="#1A1206"/>
    </linearGradient>
  </defs>
  <g fill="#F2C811">
    <rect x="48" y="48" width="170" height="72" rx="10" opacity="0.95"/>
    <rect x="234" y="48" width="170" height="72" rx="10" opacity="0.7"/>
    <rect x="420" y="48" width="170" height="72" rx="10" opacity="0.5"/>
  </g>
  <polyline points="48,410 130,350 212,380 294,280 376,300 458,210 540,240 622,150" fill="none" stroke="#F2C811" stroke-width="5"/>
  <g fill="#F2C811" opacity="0.85">
    <circle cx="48" cy="410" r="6"/><circle cx="212" cy="380" r="6"/><circle cx="376" cy="300" r="6"/><circle cx="540" cy="240" r="6"/><circle cx="622" cy="150" r="6"/>
  </g>
  <g fill="#e0a800">
    <rect x="646" y="300" width="34" height="140" rx="4"/>
    <rect x="690" y="240" width="34" height="200" rx="4"/>
    <rect x="734" y="330" width="34" height="110" rx="4"/>
  </g>
  <text x="48" y="474" fill="#ffe27a" font-family="Arial, sans-serif" font-size="22" font-weight="700">Power BI Retail Sales Report</text>
</svg>
