<svg xmlns="http://www.w3.org/2000/svg" viewBox="0 0 420 270" fill="none">
  <defs>
    <linearGradient id="bg5" x1="0" y1="0" x2="420" y2="270" gradientUnits="userSpaceOnUse">
      <stop stop-color="#0E1A16"/><stop offset="1" stop-color="#080D0B"/>
    </linearGradient>
    <radialGradient id="glow5" cx="0" cy="0" r="1" gradientUnits="userSpaceOnUse" gradientTransform="translate(210 40) scale(210)">
      <stop stop-color="#2ea36b" stop-opacity="0.3"/><stop offset="1" stop-color="#2ea36b" stop-opacity="0"/>
    </radialGradient>
  </defs>
  <rect width="420" height="270" rx="18" fill="url(#bg5)"/>
  <rect width="420" height="270" rx="18" fill="url(#glow5)"/>
  <rect x="0.75" y="0.75" width="418.5" height="268.5" rx="17.25" stroke="#ffffff" stroke-opacity="0.06"/>

  <!-- 4 KPI cards with sparklines -->
  <g font-family="Arial, Helvetica, sans-serif">
    <g>
      <rect x="26" y="92" width="176" height="66" rx="12" fill="#122019" stroke="#2ea36b" stroke-opacity="0.28"/>
      <rect x="40" y="104" width="52" height="8" rx="4" fill="#4c7d63"/>
      <text x="40" y="140" fill="#8ff0bd" font-size="22" font-weight="800">₦4.2M</text>
      <path d="M120 142 L134 132 L148 138 L162 120 L176 126 L190 112" fill="none" stroke="#3ee88f" stroke-width="3" stroke-linecap="round" stroke-linejoin="round"/>
    </g>
    <g>
      <rect x="218" y="92" width="176" height="66" rx="12" fill="#122019" stroke="#2ea36b" stroke-opacity="0.28"/>
      <rect x="232" y="104" width="44" height="8" rx="4" fill="#4c7d63"/>
      <text x="232" y="140" fill="#8ff0bd" font-size="22" font-weight="800">1,864</text>
      <path d="M312 138 L326 140 L340 128 L354 132 L368 118 L382 124" fill="none" stroke="#a7f3d0" stroke-width="3" stroke-linecap="round" stroke-linejoin="round"/>
    </g>
    <g>
      <rect x="26" y="170" width="176" height="66" rx="12" fill="#122019" stroke="#2ea36b" stroke-opacity="0.28"/>
      <rect x="40" y="182" width="48" height="8" rx="4" fill="#4c7d63"/>
      <text x="40" y="218" fill="#8ff0bd" font-size="22" font-weight="800">₦1.6M</text>
      <path d="M120 216 L134 210 L148 214 L162 200 L176 206 L190 196" fill="none" stroke="#3ee88f" stroke-width="3" stroke-linecap="round" stroke-linejoin="round"/>
    </g>
    <g>
      <rect x="218" y="170" width="176" height="66" rx="12" fill="#122019" stroke="#2ea36b" stroke-opacity="0.28"/>
      <rect x="232" y="182" width="56" height="8" rx="4" fill="#4c7d63"/>
      <text x="232" y="218" fill="#8ff0bd" font-size="22" font-weight="800">38%</text>
      <path d="M312 214 L326 218 L340 208 L354 212 L368 202 L382 208" fill="none" stroke="#a7f3d0" stroke-width="3" stroke-linecap="round" stroke-linejoin="round"/>
    </g>
  </g>

  <text x="26" y="52" fill="#eafff3" font-family="Arial, Helvetica, sans-serif" font-size="22" font-weight="800">KPI Cards</text>
  <text x="27" y="72" fill="#5f9078" font-family="Arial, Helvetica, sans-serif" font-size="12.5" letter-spacing="1">REVENUE · PROFIT · CUSTOMERS</text>
</svg>
